<svg id="facebook-square" xmlns="http://www.w3.org/2000/svg" width="199.68" height="199.68" viewBox="0 0 199.68 199.68">
  <path id="Path_6" data-name="Path 6" d="M162.24,0a36.061,36.061,0,0,1,26.455,10.985A36.061,36.061,0,0,1,199.68,37.44v124.8a37.505,37.505,0,0,1-37.44,37.44H137.8V122.33h25.87l3.9-30.16H137.8V72.93q0-7.28,3.055-10.92t11.9-3.64l15.86-.13V31.33a174.263,174.263,0,0,0-23.14-1.17q-17.68,0-28.275,10.4T106.6,69.94V92.17h-26v30.16h26v77.35H37.44a36.061,36.061,0,0,1-26.455-10.985A36.061,36.061,0,0,1,0,162.24V37.44A36.061,36.061,0,0,1,10.985,10.985,36.061,36.061,0,0,1,37.44,0Z"/>
</svg>
