<svg xmlns="http://www.w3.org/2000/svg" width="199.68" height="200.013" viewBox="0 0 199.68 200.013">
  <g id="bxl-instagram-alt" transform="translate(-23.976 -23.848)">
    <path id="Path_7" data-name="Path 7" d="M223.013,82.883a72.408,72.408,0,0,0-4.646-24.572,51.118,51.118,0,0,0-29.2-29.2,73.25,73.25,0,0,0-24.239-4.657c-10.667-.477-14.049-.61-41.127-.61s-30.549,0-41.138.61a73.25,73.25,0,0,0-24.228,4.657,51.084,51.084,0,0,0-29.2,29.2A72.674,72.674,0,0,0,24.6,82.539c-.477,10.678-.621,14.06-.621,41.138s0,30.537.621,41.138a73.133,73.133,0,0,0,4.646,24.25A51.118,51.118,0,0,0,58.45,218.25a73.006,73.006,0,0,0,24.228,4.99c10.678.477,14.06.621,41.138.621s30.549,0,41.138-.621a73.072,73.072,0,0,0,24.239-4.646,51.173,51.173,0,0,0,29.2-29.2,73.026,73.026,0,0,0,4.646-24.25c.477-10.667.621-14.049.621-41.138C223.634,96.932,223.634,93.494,223.013,82.883Zm-99.275,92A51.262,51.262,0,1,1,175,123.622,51.251,51.251,0,0,1,123.739,174.883Zm53.3-92.466a11.951,11.951,0,1,1,11.942-11.953A11.942,11.942,0,0,1,177.041,82.417Z"/>
    <circle id="Ellipse_1" data-name="Ellipse 1" cx="33.299" cy="33.299" r="33.299" transform="translate(90.44 90.323)"/>
  </g>
</svg>
