<?xml version="1.0" encoding="UTF-8"?>
<svg id="Layer_2" xmlns="http://www.w3.org/2000/svg" viewBox="0 0 336.66 328.93">
  <defs>
    <style>
      .cls-1 {
        fill: #fff;
      }
    </style>
  </defs>
  <g id="Layer_1-2" data-name="Layer_1">
    <g>
      <path class="cls-1" d="M69.25,298.64c-.19-8.84,3.82-16.33,7.41-24.04,4.13-8.85,8.74-17.64,11.42-26.95,4.6-15.94,2.08-31.64-5.08-46.54-3.16-6.58-6.69-12.99-9.86-19.58-5.56-11.55-5.21-23.16.26-34.63,2.14-4.5,4.47-8.91,6.94-13.24,12.97-22.8,12.78-45.8,1.55-69.18-4.23-8.8-8.98-17.56-11.6-26.87-4.82-17.1,5.8-33.73,22.26-36.81,18.49-3.47,33.92,7.27,36.41,25.66,1.13,8.35-1.67,16.05-5.15,23.53-4.26,9.17-9.18,18.13-12.36,27.67-5.88,17.63-4.31,35.09,4.23,51.75,2.95,5.76,6.13,11.42,9.01,17.22,5.86,11.77,5.94,23.67.21,35.51-2.82,5.83-5.92,11.53-8.82,17.31-10.73,21.39-10.55,42.84-.24,64.3,3.67,7.63,8,15,10.98,22.89,5.51,14.6,1.24,29.11-10.4,36.81-10.12,6.7-20.9,7.21-31.71,1.73-10-5.07-15.51-14.85-15.46-26.54Z"/>
      <path class="cls-1" d="M228.39,233.92c-.03-14.33-3.2-25.23-8.55-35.58-2.67-5.17-5.43-10.29-8.01-15.5-6.1-12.32-6.01-24.65.21-36.9,2.26-4.44,4.59-8.85,7.01-13.21,12.15-21.86,12.21-44.05,1.78-66.49-3.57-7.68-7.84-15.07-10.9-22.94-4.58-11.76-3.94-23.26,4.76-33.22,9.24-10.57,24.95-13.09,37.35-6.31,12.62,6.91,18.39,21.11,13.76,36.03-2.2,7.07-5.73,13.78-9.09,20.43-5.37,10.63-9.49,21.58-10.3,33.58-.89,13.31,2.08,25.75,8.41,37.44,2.77,5.11,5.58,10.21,8.13,15.44,5.85,11.98,5.85,24.02-.1,35.99-3.11,6.25-6.49,12.36-9.48,18.66-9.58,20.18-9.51,40.46-.1,60.66,3.37,7.23,7.38,14.16,10.59,21.45,5.29,11.99,5.08,23.7-3.72,34.16-9.25,11-24.63,13.78-37.14,7.05-12.7-6.83-18.76-21.49-14.06-35.89,2.2-6.73,5.55-13.14,8.87-19.43,6.3-11.94,10.68-24.32,10.56-35.4Z"/>
      <path class="cls-1" d="M336.66,100.82c-1.67,4.47-4.24,11.93-7.25,19.21-3.79,9.18-8.94,17.91-11.73,27.36-4.88,16.58-2.44,32.93,5.06,48.47,3.32,6.88,7.21,13.49,10.23,20.49,6.55,15.18,3.36,30.14-7.84,38.93-10.5,8.23-24.45,8.84-35.36,1.53-11.22-7.51-16.2-21.01-11.84-34.69,2.25-7.05,5.81-13.73,9.24-20.34,6.2-11.98,10.42-24.36,10.25-38.07-.16-12.8-4.13-24.37-9.75-35.69-4.03-8.12-8.12-16.44-10.42-25.14-3.13-11.83,1.29-22.09,10.88-29.56,9.62-7.5,20.46-8.63,31.42-3.24,11.16,5.48,16.45,15,17.11,30.74Z"/>
      <path class="cls-1" d="M30.18,67.18c20.35.11,34.28,18.51,28.58,38.56-2.02,7.1-5.51,13.89-9.03,20.45-7.57,14.12-11.86,28.82-10.39,45,1.04,11.51,5.69,21.69,10.58,31.95,3.96,8.32,8.02,16.95,9.75,25.89,3.12,16.14-10.2,31.07-27.52,32.56-16.46,1.42-31.1-11.27-31.97-27.41-.51-9.39,2.98-17.48,6.88-25.67,4.42-9.26,9.29-18.53,12.01-28.34,4.71-17.03,1.62-33.62-6.42-49.29-2.96-5.77-5.99-11.5-8.77-17.36-3.59-7.58-4.94-15.61-2.97-23.82,3.28-13.65,15.13-22.6,29.27-22.52Z"/>
      <path class="cls-1" d="M168.91,262.19c-21.35-1.11-35.47-20.42-28.95-40.86,2.25-7.05,5.96-13.68,9.4-20.29,5.74-11.06,9.67-22.59,9.94-35.15.28-13.28-3.46-25.53-9.53-37.25-3.58-6.92-7.4-13.85-9.81-21.2-5.46-16.66,3.24-33.41,19.19-38.41,15.75-4.93,32.31,3.68,37.58,19.37,2.83,8.43,1.43,16.46-2.02,24.22-2.97,6.67-6.5,13.08-9.7,19.65-10.46,21.43-10.48,42.89-.05,64.33,3.34,6.87,7.25,13.49,10.16,20.54,6.49,15.73,2.34,31.13-10.72,39.05-4.66,2.83-10.29,4.05-15.48,6.01Z"/>
    </g>
  </g>
</svg>