<?xml version="1.0" encoding="UTF-8"?>
<svg id="Layer_2" xmlns="http://www.w3.org/2000/svg" viewBox="0 0 289.53 108.2">
  <defs>
    <style>
      .cls-1 {
        fill: #fff;
      }
    </style>
  </defs>
  <g id="Layer_1-2" data-name="Layer_1">
    <path class="cls-1" d="M274.91,29.87h-57.44c-8.08,0-14.62-6.55-14.62-14.62v-.62c0-8.08-6.55-14.62-14.62-14.62h-86.78c-8.08,0-14.62,6.55-14.62,14.62v.62c0,8.08-6.55,14.62-14.62,14.62H14.62c-8.08,0-14.62,6.55-14.62,14.62v49.09c0,8.08,6.55,14.62,14.62,14.62h260.28c8.08,0,14.62-6.55,14.62-14.62v-49.09c0-8.08-6.55-14.62-14.62-14.62ZM17.62,57.18c-4.61,0-8.34-3.73-8.34-8.34s3.73-8.34,8.34-8.34,8.34,3.73,8.34,8.34-3.73,8.34-8.34,8.34ZM270.91,57.18c-4.6,0-8.34-3.73-8.34-8.34s3.73-8.34,8.34-8.34,8.34,3.73,8.34,8.34-3.73,8.34-8.34,8.34Z"/>
  </g>
</svg>